<?xml version="1.0" standalone="no"?>
<!DOCTYPE svg PUBLIC "-//W3C//DTD SVG 20010904//EN"
 "http://www.w3.org/TR/2001/REC-SVG-20010904/DTD/svg10.dtd">
<svg version="1.0" xmlns="http://www.w3.org/2000/svg"
 width="800.000000pt" height="800.000000pt" viewBox="0 0 800.000000 800.000000"
 preserveAspectRatio="xMidYMid meet">
<metadata>
Created by potrace 1.14, written by Peter Selinger 2001-2017
</metadata>
<g transform="translate(0.000000,800.000000) scale(0.100000,-0.100000)"
fill="#000000" stroke="none">
<path d="M3750 7984 c-833 -60 -1597 -355 -2240 -867 -763 -607 -1278 -1478
-1445 -2446 -55 -314 -75 -729 -49 -1006 110 -1189 713 -2242 1679 -2932 537
-383 1183 -628 1870 -709 210 -25 672 -25 875 0 671 81 1234 287 1780 651 735
489 1291 1216 1570 2052 86 259 174 640 199 863 11 101 11 474 0 650 -53 830
-354 1607 -875 2260 -139 173 -431 466 -604 604 -609 486 -1274 764 -2060 861
-120 15 -580 27 -700 19z m-1328 -748 c261 -50 433 -202 495 -436 24 -92 22
-251 -5 -361 -52 -213 -168 -407 -356 -594 -214 -214 -467 -355 -732 -409
-544 -111 -944 210 -870 699 26 171 79 303 188 467 78 116 259 299 388 390
281 200 628 295 892 244z m2756 -1926 c270 -77 484 -267 585 -521 46 -115 60
-193 60 -329 -1 -152 -22 -243 -88 -377 -114 -231 -317 -396 -570 -464 -104
-28 -306 -31 -408 -6 -524 129 -810 675 -616 1177 101 264 355 473 649 536 93
19 293 12 388 -16z m-1499 -1467 c131 -267 366 -505 631 -638 88 -44 257 -101
355 -119 389 -72 779 24 1100 270 103 79 202 185 298 319 27 38 22 38 352 -41
376 -90 978 -285 1358 -439 22 -9 21 -26 -2 -122 -70 -282 -164 -536 -301
-808 -79 -156 -265 -454 -363 -580 -21 -27 -51 -66 -65 -85 -79 -102 -142
-171 -297 -326 -365 -365 -697 -594 -1180 -814 -292 -132 -699 -248 -1020
-289 -49 -7 -106 -14 -125 -17 -161 -23 -681 -20 -885 5 -722 89 -1397 373
-1970 829 -140 112 -389 353 -517 501 -381 440 -667 985 -814 1551 -15 58 -27
111 -28 118 -2 24 546 219 948 337 122 36 250 74 286 85 73 22 295 78 440 110
423 94 938 169 1375 200 83 6 168 12 190 14 22 1 76 3 120 4 l81 2 33 -67z"/>
<path d="M4815 5125 c-38 -9 -110 -35 -160 -59 -480 -235 -502 -902 -39 -1181
188 -113 424 -120 633 -19 173 84 308 251 356 439 19 77 19 243 0 320 -57 225
-239 417 -460 485 -93 28 -237 35 -330 15z m210 -45 c252 -36 436 -192 521
-440 28 -82 26 -261 -3 -355 -49 -155 -162 -291 -302 -364 -245 -128 -528 -85
-722 109 -322 322 -209 843 220 1016 48 19 110 32 206 43 6 0 42 -4 80 -9z"/>
</g>
</svg>
